<mxfile host="app.diagrams.net" modified="2021-06-23T02:39:43.117Z" agent="5.0 (Macintosh; Intel Mac OS X 10_15_7) AppleWebKit/537.36 (KHTML, like Gecko) Chrome/91.0.4472.106 Safari/537.36" etag="gCxJbygYP4vYoD_CNLgT" version="14.8.0" type="github">
  <diagram id="pJSdXZW5RLaHWPt-oxUb" name="第 1 页">
    <mxGraphModel dx="1426" dy="794" grid="0" gridSize="10" guides="1" tooltips="1" connect="1" arrows="1" fold="1" page="1" pageScale="1" pageWidth="827" pageHeight="1169" math="0" shadow="0">
      <root>
        <mxCell id="0" />
        <mxCell id="1" parent="0" />
        <mxCell id="ArmjkCHneCmOyYuBnzp7-1" value="" style="shape=flexArrow;endArrow=classic;startArrow=classic;html=1;width=20;strokeWidth=2;" edge="1" parent="1">
          <mxGeometry width="100" height="100" relative="1" as="geometry">
            <mxPoint x="11" y="351" as="sourcePoint" />
            <mxPoint x="817" y="351" as="targetPoint" />
          </mxGeometry>
        </mxCell>
        <mxCell id="ArmjkCHneCmOyYuBnzp7-4" style="edgeStyle=orthogonalEdgeStyle;rounded=0;orthogonalLoop=1;jettySize=auto;html=1;strokeWidth=2;startArrow=classic;startFill=1;" edge="1" parent="1" source="ArmjkCHneCmOyYuBnzp7-2">
          <mxGeometry relative="1" as="geometry">
            <mxPoint x="83.5" y="343" as="targetPoint" />
          </mxGeometry>
        </mxCell>
        <mxCell id="ArmjkCHneCmOyYuBnzp7-2" value="网卡1" style="rounded=0;whiteSpace=wrap;html=1;align=left;" vertex="1" parent="1">
          <mxGeometry x="18" y="459" width="131" height="66" as="geometry" />
        </mxCell>
        <mxCell id="ArmjkCHneCmOyYuBnzp7-28" style="edgeStyle=orthogonalEdgeStyle;rounded=0;orthogonalLoop=1;jettySize=auto;html=1;startArrow=classic;startFill=1;strokeWidth=2;curved=1;entryX=0.25;entryY=1;entryDx=0;entryDy=0;dashed=1;" edge="1" parent="1" source="ArmjkCHneCmOyYuBnzp7-3" target="ArmjkCHneCmOyYuBnzp7-5">
          <mxGeometry relative="1" as="geometry">
            <mxPoint x="158" y="349" as="targetPoint" />
            <Array as="points">
              <mxPoint x="113" y="433" />
              <mxPoint x="144" y="433" />
              <mxPoint x="144" y="299" />
              <mxPoint x="206" y="299" />
            </Array>
          </mxGeometry>
        </mxCell>
        <mxCell id="ArmjkCHneCmOyYuBnzp7-29" value="经过总线进入主存储器" style="edgeLabel;html=1;align=center;verticalAlign=middle;resizable=0;points=[];" vertex="1" connectable="0" parent="ArmjkCHneCmOyYuBnzp7-28">
          <mxGeometry x="0.1038" y="8" relative="1" as="geometry">
            <mxPoint x="19" y="49" as="offset" />
          </mxGeometry>
        </mxCell>
        <mxCell id="ArmjkCHneCmOyYuBnzp7-3" value="buffer" style="ellipse;whiteSpace=wrap;html=1;aspect=fixed;" vertex="1" parent="1">
          <mxGeometry x="90" y="467" width="45" height="45" as="geometry" />
        </mxCell>
        <mxCell id="ArmjkCHneCmOyYuBnzp7-6" style="edgeStyle=orthogonalEdgeStyle;rounded=0;orthogonalLoop=1;jettySize=auto;html=1;strokeWidth=2;startArrow=classic;startFill=1;" edge="1" parent="1" source="ArmjkCHneCmOyYuBnzp7-5">
          <mxGeometry relative="1" as="geometry">
            <mxPoint x="268.5" y="362" as="targetPoint" />
          </mxGeometry>
        </mxCell>
        <mxCell id="ArmjkCHneCmOyYuBnzp7-30" style="edgeStyle=orthogonalEdgeStyle;curved=1;rounded=0;orthogonalLoop=1;jettySize=auto;html=1;entryX=0;entryY=0.5;entryDx=0;entryDy=0;dashed=1;startArrow=classic;startFill=1;strokeWidth=2;exitX=0.5;exitY=0;exitDx=0;exitDy=0;" edge="1" parent="1" source="ArmjkCHneCmOyYuBnzp7-5" target="ArmjkCHneCmOyYuBnzp7-7">
          <mxGeometry relative="1" as="geometry" />
        </mxCell>
        <mxCell id="ArmjkCHneCmOyYuBnzp7-31" value="经过总线进入CPU" style="edgeLabel;html=1;align=center;verticalAlign=middle;resizable=0;points=[];" vertex="1" connectable="0" parent="ArmjkCHneCmOyYuBnzp7-30">
          <mxGeometry x="0.0652" y="-15" relative="1" as="geometry">
            <mxPoint as="offset" />
          </mxGeometry>
        </mxCell>
        <mxCell id="ArmjkCHneCmOyYuBnzp7-5" value="RAM 主存储器" style="rounded=0;whiteSpace=wrap;html=1;align=left;" vertex="1" parent="1">
          <mxGeometry x="144" y="204" width="249" height="60" as="geometry" />
        </mxCell>
        <mxCell id="ArmjkCHneCmOyYuBnzp7-7" value="CPU" style="whiteSpace=wrap;html=1;aspect=fixed;align=center;verticalAlign=top;" vertex="1" parent="1">
          <mxGeometry x="405" y="32" width="172" height="172" as="geometry" />
        </mxCell>
        <mxCell id="ArmjkCHneCmOyYuBnzp7-8" style="edgeStyle=orthogonalEdgeStyle;rounded=0;orthogonalLoop=1;jettySize=auto;html=1;strokeWidth=2;startArrow=classic;startFill=1;" edge="1" parent="1" source="ArmjkCHneCmOyYuBnzp7-9">
          <mxGeometry relative="1" as="geometry">
            <mxPoint x="232.5" y="343" as="targetPoint" />
          </mxGeometry>
        </mxCell>
        <mxCell id="ArmjkCHneCmOyYuBnzp7-9" value="网卡2" style="rounded=0;whiteSpace=wrap;html=1;align=left;" vertex="1" parent="1">
          <mxGeometry x="167" y="459" width="131" height="66" as="geometry" />
        </mxCell>
        <mxCell id="ArmjkCHneCmOyYuBnzp7-10" value="buffer" style="ellipse;whiteSpace=wrap;html=1;aspect=fixed;" vertex="1" parent="1">
          <mxGeometry x="239" y="467" width="45" height="45" as="geometry" />
        </mxCell>
        <mxCell id="ArmjkCHneCmOyYuBnzp7-14" style="edgeStyle=orthogonalEdgeStyle;rounded=0;orthogonalLoop=1;jettySize=auto;html=1;entryX=0.5;entryY=0;entryDx=0;entryDy=0;startArrow=classic;startFill=1;strokeWidth=2;" edge="1" parent="1" source="ArmjkCHneCmOyYuBnzp7-11" target="ArmjkCHneCmOyYuBnzp7-13">
          <mxGeometry relative="1" as="geometry" />
        </mxCell>
        <mxCell id="ArmjkCHneCmOyYuBnzp7-11" value="L1" style="rounded=0;whiteSpace=wrap;html=1;align=left;" vertex="1" parent="1">
          <mxGeometry x="429" y="79" width="120" height="33" as="geometry" />
        </mxCell>
        <mxCell id="ArmjkCHneCmOyYuBnzp7-21" style="edgeStyle=orthogonalEdgeStyle;rounded=0;orthogonalLoop=1;jettySize=auto;html=1;entryX=0.206;entryY=0;entryDx=0;entryDy=0;entryPerimeter=0;startArrow=classic;startFill=1;strokeWidth=2;" edge="1" parent="1" source="ArmjkCHneCmOyYuBnzp7-13" target="ArmjkCHneCmOyYuBnzp7-15">
          <mxGeometry relative="1" as="geometry" />
        </mxCell>
        <mxCell id="ArmjkCHneCmOyYuBnzp7-13" value="L1" style="rounded=0;whiteSpace=wrap;html=1;align=left;" vertex="1" parent="1">
          <mxGeometry x="429" y="149" width="120" height="33" as="geometry" />
        </mxCell>
        <mxCell id="ArmjkCHneCmOyYuBnzp7-27" style="edgeStyle=orthogonalEdgeStyle;rounded=0;orthogonalLoop=1;jettySize=auto;html=1;startArrow=classic;startFill=1;strokeWidth=2;" edge="1" parent="1" source="ArmjkCHneCmOyYuBnzp7-15">
          <mxGeometry relative="1" as="geometry">
            <mxPoint x="609" y="360" as="targetPoint" />
          </mxGeometry>
        </mxCell>
        <mxCell id="ArmjkCHneCmOyYuBnzp7-15" value="L3" style="rounded=0;whiteSpace=wrap;html=1;align=center;verticalAlign=top;" vertex="1" parent="1">
          <mxGeometry x="405" y="222" width="408" height="41" as="geometry" />
        </mxCell>
        <mxCell id="ArmjkCHneCmOyYuBnzp7-22" value="CPU" style="whiteSpace=wrap;html=1;aspect=fixed;align=center;verticalAlign=top;" vertex="1" parent="1">
          <mxGeometry x="636" y="32" width="172" height="172" as="geometry" />
        </mxCell>
        <mxCell id="ArmjkCHneCmOyYuBnzp7-23" style="edgeStyle=orthogonalEdgeStyle;rounded=0;orthogonalLoop=1;jettySize=auto;html=1;entryX=0.5;entryY=0;entryDx=0;entryDy=0;startArrow=classic;startFill=1;strokeWidth=2;" edge="1" parent="1" source="ArmjkCHneCmOyYuBnzp7-24" target="ArmjkCHneCmOyYuBnzp7-26">
          <mxGeometry relative="1" as="geometry" />
        </mxCell>
        <mxCell id="ArmjkCHneCmOyYuBnzp7-24" value="L1" style="rounded=0;whiteSpace=wrap;html=1;align=left;" vertex="1" parent="1">
          <mxGeometry x="660" y="79" width="120" height="33" as="geometry" />
        </mxCell>
        <mxCell id="ArmjkCHneCmOyYuBnzp7-25" style="edgeStyle=orthogonalEdgeStyle;rounded=0;orthogonalLoop=1;jettySize=auto;html=1;entryX=0.206;entryY=0;entryDx=0;entryDy=0;entryPerimeter=0;startArrow=classic;startFill=1;strokeWidth=2;" edge="1" parent="1" source="ArmjkCHneCmOyYuBnzp7-26">
          <mxGeometry relative="1" as="geometry">
            <mxPoint x="720.0479999999998" y="222" as="targetPoint" />
          </mxGeometry>
        </mxCell>
        <mxCell id="ArmjkCHneCmOyYuBnzp7-26" value="L1" style="rounded=0;whiteSpace=wrap;html=1;align=left;" vertex="1" parent="1">
          <mxGeometry x="660" y="149" width="120" height="33" as="geometry" />
        </mxCell>
      </root>
    </mxGraphModel>
  </diagram>
</mxfile>
